<?xml version="1.0" encoding="UTF-8" standalone="no"?>
<!DOCTYPE svg PUBLIC "-//W3C//DTD SVG 1.1//EN" "http://www.w3.org/Graphics/SVG/1.1/DTD/svg11.dtd">
<svg width="100%" height="100%" viewBox="0 0 484 418" version="1.1" xmlns="http://www.w3.org/2000/svg" xmlns:xlink="http://www.w3.org/1999/xlink" xml:space="preserve" xmlns:serif="http://www.serif.com/" style="fill-rule:evenodd;clip-rule:evenodd;">
    <g transform="matrix(1,0,0,1,192.5,225)">
        <path d="M-47.919,178.686C-128.527,157.069 -185,83.456 -185,0C-185,-101.488 -101.488,-185 -0,-185L0,0L-47.919,178.686Z" style="fill:rgb(236,236,255);fill-rule:nonzero;"/>
        <path d="M0,-185C101.488,-185 185,-101.488 185,-0C185,101.488 101.488,185 0,185C-16.18,185 -32.291,182.877 -47.919,178.686L0,0L0,-185Z" style="fill:rgb(255,255,222);fill-rule:nonzero;"/>
        <g transform="matrix(1,0,0,1,-91.7074,-12.0833)">
            <text x="-16.012px" y="0px" style="font-family:'ArialMT', 'Arial', sans-serif;font-size:16px;">46%</text>
        </g>
        <g transform="matrix(1,0,0,1,91.7074,12.0833)">
            <text x="-16.012px" y="0px" style="font-family:'ArialMT', 'Arial', sans-serif;font-size:16px;">54%</text>
        </g>
        <g transform="matrix(1,0,0,1,0,-200)">
            <text x="0px" y="0px" style="font-family:'ArialMT', 'Arial', sans-serif;font-size:16px;">e-Book vs Broché</text>
        </g>
        <g transform="matrix(1,0,0,1,216,-22)">
            <rect x="0" y="0" width="18" height="18" style="fill:rgb(236,236,255);stroke:rgb(236,236,255);stroke-width:1px;"/>
            <g transform="matrix(1,0,0,1,22,14)">
                <text x="0px" y="0px" style="font-family:'ArialMT', 'Arial', sans-serif;font-size:16px;">eBook</text>
            </g>
        </g>
        <g transform="matrix(1,0,0,1,216,0)">
            <rect x="0" y="0" width="18" height="18" style="fill:rgb(255,255,222);stroke:rgb(255,255,222);stroke-width:1px;"/>
            <g transform="matrix(1,0,0,1,22,14)">
                <text x="0px" y="0px" style="font-family:'ArialMT', 'Arial', sans-serif;font-size:16px;">Broché</text>
            </g>
        </g>
    </g>
</svg>
